name C:\Users\u0101727\Documents\MyRepositories\upper-imu-dc\Results\main_tracking\Case_46\FLX02_linearAccelerations_bodyFrame.mot
datacolumns 4
datarows 70
range 0.51000000 1.20000000
endheader 
time	radius_imu_x	radius_imu_y	radius_imu_z	
          0.51000000	         -0.99289361	          9.72686336	          0.13866369	
          0.52000000	         -0.87343966	          9.74060785	          0.09924215	
          0.53000000	         -0.85372558	          9.73870084	          0.05806033	
          0.54000000	         -0.85965282	          9.74376178	          0.03350873	
          0.55000000	         -0.87371505	          9.74908793	          0.02561292	
          0.56000000	         -0.88997621	          9.75580469	          0.02985104	
          0.57000000	         -0.90575526	          9.76310064	          0.03983976	
          0.58000000	         -0.91897025	          9.77046844	          0.04626983	
          0.59000000	         -0.92639611	          9.77805139	          0.03361371	
          0.60000000	         -0.93295655	          9.78142608	         -0.01930919	
          0.61000000	         -0.91604411	          9.79539409	         -0.12173590	
          0.62000000	         -0.94363633	          9.77002172	         -0.26446817	
          0.63000000	         -0.70218892	          9.81993627	         -0.39346772	
          0.64000000	         -0.59906851	          9.58315946	          1.23513892	
          0.65000000	         -1.09026256	          9.91038541	          2.21912604	
          0.66000000	         -1.27048788	          9.90245012	          1.98739743	
          0.67000000	         -1.30349319	          9.88462846	          1.68327418	
          0.68000000	         -1.40325413	          9.86028279	          1.10702322	
          0.69000000	         -1.33962551	          9.81969569	         -0.10756285	
          0.70000000	         -0.59477421	          9.60047460	          0.80664544	
          0.71000000	         -0.70881416	          9.68272190	          1.78469563	
          0.72000000	         -1.32754030	          9.96585484	          2.35569586	
          0.73000000	         -1.63806049	          9.95365899	          2.11966767	
          0.74000000	         -1.74161486	          9.95907023	          1.98580031	
          0.75000000	         -1.83795203	          9.95133572	          1.83433011	
          0.76000000	         -1.92878940	          9.96376632	          1.76279939	
          0.77000000	         -2.00647508	          9.96823605	          1.74951426	
          0.78000000	         -2.09669879	          9.97617646	          1.68377049	
          0.79000000	         -2.19034411	          9.98401746	          1.65931676	
          0.80000000	         -2.28267838	          9.99407075	          1.61767144	
          0.81000000	         -2.37956191	         10.00505144	          1.58375704	
          0.82000000	         -2.47532430	         10.01823376	          1.54969545	
          0.83000000	         -2.57077104	         10.03292011	          1.51951859	
          0.84000000	         -2.66451150	         10.04929728	          1.49526664	
          0.85000000	         -2.75656572	         10.06705810	          1.47943874	
          0.86000000	         -2.84697902	         10.08608740	          1.47472996	
          0.87000000	         -2.93620081	         10.10626216	          1.48382680	
          0.88000000	         -3.02489890	         10.12753511	          1.50865763	
          0.89000000	         -3.11383734	         10.14990629	          1.54947907	
          0.90000000	         -3.20348480	         10.17343724	          1.60430319	
          0.91000000	         -3.29361379	         10.19824092	          1.66888995	
          0.92000000	         -3.38309762	         10.22445359	          1.73732689	
          0.93000000	         -3.47000876	         10.25216062	          1.80296991	
          0.94000000	         -3.55196169	         10.28135303	          1.85943835	
          0.95000000	         -3.62666676	         10.31188919	          1.90137689	
          0.96000000	         -3.69244153	         10.34353028	          1.92494693	
          0.97000000	         -3.74843324	         10.37596335	          1.92792043	
          0.98000000	         -3.79451883	         10.40885238	          1.90973368	
          0.99000000	         -3.83107187	         10.44189938	          1.87149552	
          1.00000000	         -3.85867541	         10.47492042	          1.81585360	
          1.01000000	         -3.87776067	         10.50790119	          1.74653819	
          1.02000000	         -3.88823464	         10.54098316	          1.66767309	
          1.03000000	         -3.88924036	         10.57441484	          1.58313468	
          1.04000000	         -3.87916955	         10.60847528	          1.49620054	
          1.05000000	         -3.85590496	         10.64340165	          1.40959235	
          1.06000000	         -3.81724269	         10.67932532	          1.32588452	
          1.07000000	         -3.76139694	         10.71623908	          1.24812712	
          1.08000000	         -3.68745555	         10.75401042	          1.18035536	
          1.09000000	         -3.59566156	         10.79243044	          1.12757788	
          1.10000000	         -3.48748549	         10.83126584	          1.09512718	
          1.11000000	         -3.36554311	         10.87028709	          1.08776035	
          1.12000000	         -3.23341530	         10.90926972	          1.10903582	
          1.13000000	         -3.09538292	         10.94798324	          1.16114890	
          1.14000000	         -2.95608828	         10.98619017	          1.24506045	
          1.15000000	         -2.82013416	         11.02366224	          1.36061936	
          1.16000000	         -2.69169527	         11.06020912	          1.50662168	
          1.17000000	         -2.57411867	         11.09569738	          1.68077548	
          1.18000000	         -2.46959523	         11.13006187	          1.87975955	
          1.19000000	         -2.37888435	         11.16330122	          2.09935113	
          1.20000000	         -2.30117082	         11.19545594	          2.33462085	
